# xmcd CD database file
#
# Track frame offsets:
#	150
#	9034
#	19730
#	31215
#	39099
#	50469
#	61745
#	74497
#	87457
#	101164
#	115559
#	127830
#	137642
#	151758
#	162538
#	172276
#	182377
#	195545
#	205701
#	217111
#	229387
#	241212
#	251347
#
# Disc length: 3575 seconds
#
# Revision: 0
# Processed by: cddbd v1.5.2PL0 Copyright (c) Steve Scherf et al.
# Submitted via: CDex 1.51
#
DISCID=2c0df517
DTITLE=Jerry Lee Lewis - The Killer Rocks On (1-12)  Boogie Woogie Country Man (13-23)
DYEAR=1900
DGENRE=Country
TTITLE0=01-Don't be cruel
TTITLE1=02-You can have her
TTITLE2=03-Games people play
TTITLE3=04-Lonely weekends
TTITLE4=05-You don't miss your water
TTITLE5=06-Turn on your love light
TTITLE6=07-Chantilly lace
TTITLE7=08-C. C. Rider
TTITLE8=09-Walk a mile in my shoes
TTITLE9=10-Me and Bobby McGee
TTITLE10=11-Shotgun man
TTITLE11=12-I'm walking
TTITLE12=13-I'm still jealous of you
TTITLE13=14-A little peace and harmony
TTITLE14=15-Jesus is on the main line
TTITLE15=16-Forever forgiving (remember me)
TTITLE16=17-I'm the one who loves you
TTITLE17=18-Red hot memories (Ice cold beer)
TTITLE18=19-I can still hear the musc in the restroom
TTITLE19=20-Love inflation
TTITLE20=21-I was sorta wondering
TTITLE21=22-Thanks for nothing
TTITLE22=23-Boogie woogie countryman
EXTD=
EXTT0=
EXTT1=
EXTT2=
EXTT3=
EXTT4=
EXTT5=
EXTT6=
EXTT7=
EXTT8=
EXTT9=
EXTT10=
EXTT11=
EXTT12=
EXTT13=
EXTT14=
EXTT15=
EXTT16=
EXTT17=
EXTT18=
EXTT19=
EXTT20=
EXTT21=
EXTT22=
PLAYORDER=
